<?xml version="1.0" encoding="UTF-8" standalone="no"?>
<svg
   width="245"
   height="146"
   viewBox="0 0 245 146"
   fill="none"
   version="1.1"
   id="svg19"
   sodipodi:docname="presented-by-sac.svg"
   inkscape:version="1.1.2 (0a00cf5339, 2022-02-04, custom)"
   xmlns:inkscape="http://www.inkscape.org/namespaces/inkscape"
   xmlns:sodipodi="http://sodipodi.sourceforge.net/DTD/sodipodi-0.dtd"
   xmlns="http://www.w3.org/2000/svg"
   xmlns:svg="http://www.w3.org/2000/svg">
  <sodipodi:namedview
     id="namedview21"
     pagecolor="#ffffff"
     bordercolor="#666666"
     borderopacity="1.0"
     inkscape:pageshadow="2"
     inkscape:pageopacity="0.0"
     inkscape:pagecheckerboard="0"
     showgrid="false"
     inkscape:zoom="4.4931507"
     inkscape:cx="122.51982"
     inkscape:cy="73"
     inkscape:window-width="2560"
     inkscape:window-height="1369"
     inkscape:window-x="-8"
     inkscape:window-y="-8"
     inkscape:window-maximized="1"
     inkscape:current-layer="g10" />
  <g
     clip-path="url(#clip0_1207_1054)"
     id="g10">
    <path
       d="M 128.979,55.0732 H 52.7296 c -0.4614,2e-4 -0.9117,0.1424 -1.2898,0.4073 -0.378,0.265 -0.6657,0.6399 -0.8239,1.074 L 38.4603,89.9223 c -0.124,0.3401 -0.1644,0.705 -0.1178,1.064 0.0466,0.359 0.1788,0.7015 0.3855,0.9985 0.2067,0.297 0.4817,0.5398 0.8018,0.7078 0.3202,0.168 0.676,0.2564 1.0375,0.2576 h 38.6006 c 0.362,-10e-5 0.7186,0.0872 1.0397,0.2545 0.321,0.1673 0.5971,0.4097 0.8047,0.7066 0.2077,0.2969 0.3408,0.6396 0.3881,0.999 0.0472,0.3594 0.0073,0.7249 -0.1165,1.0656 l -2.4581,6.7641 c -0.158,0.435 -0.4459,0.81 -0.8244,1.076 -0.3786,0.265 -0.8295,0.407 -1.2916,0.407 H 17.5977 c -1.2776,-1.568 -3.0085,-2.702 -4.9551,-3.246 -1.9467,-0.544 -4.01369,-0.472 -5.91752,0.207 -1.90384,0.68 -3.55121,1.932 -4.7161,3.586 -1.164888,1.654 -1.79023,3.629 -1.79023,5.653 0,2.024 0.625342,3.999 1.79023,5.653 1.16489,1.654 2.81226,2.907 4.7161,3.586 1.90383,0.679 3.97082,0.752 5.91752,0.208 1.9466,-0.544 3.6775,-1.678 4.9551,-3.247 h 67.7808 c 0.4621,0 0.913,-0.142 1.2916,-0.407 0.3785,-0.266 0.6664,-0.641 0.8244,-1.076 L 98.9748,83.5757 c 0.1237,-0.3407 0.1637,-0.7062 0.1164,-1.0656 -0.0473,-0.3594 -0.1804,-0.7021 -0.388,-0.999 C 98.4956,81.2142 98.2195,80.9718 97.8984,80.8045 97.5773,80.6372 97.2207,80.5499 96.8588,80.55 H 55.0346 l 4.2117,-11.593 c 0.158,-0.4349 0.4459,-0.8106 0.8244,-1.076 0.3786,-0.2654 0.8295,-0.4077 1.2916,-0.4076 h 60.6387 l 7.75,21.3239 c 0.124,0.3412 0.164,0.7073 0.116,1.0672 -0.048,0.3599 -0.181,0.703 -0.39,1.0001 -0.208,0.2971 -0.485,0.5393 -0.807,0.7062 -0.322,0.1668 -0.679,0.2533 -1.042,0.2521 h -8.059 c -1.277,-1.5684 -3.008,-2.7024 -4.955,-3.2464 -1.946,-0.5441 -4.013,-0.4715 -5.917,0.2077 -1.904,0.6792 -3.551,1.9318 -4.716,3.5859 -1.165,1.6541 -1.791,3.6287 -1.791,5.6529 0,2.024 0.626,3.999 1.791,5.653 1.165,1.654 2.812,2.907 4.716,3.586 1.904,0.679 3.971,0.752 5.917,0.208 1.947,-0.544 3.678,-1.678 4.955,-3.247 h 14.207 c 0.462,0 0.913,0.142 1.291,0.408 0.379,0.265 0.667,0.641 0.825,1.076 l 3.426,9.433 c 0.158,0.435 0.446,0.81 0.824,1.076 0.379,0.265 0.83,0.407 1.292,0.407 h 8.378 c 0.362,0 0.719,-0.087 1.041,-0.255 0.321,-0.168 0.597,-0.411 0.804,-0.708 0.208,-0.297 0.341,-0.641 0.387,-1 0.047,-0.36 0.006,-0.726 -0.118,-1.067 L 131.088,56.5522 c -0.158,-0.4329 -0.446,-0.8069 -0.823,-1.0713 -0.377,-0.2645 -0.826,-0.4067 -1.286,-0.4077 z M 10.0118,115.721 c -1.04628,0 -2.06903,-0.31 -2.93895,-0.892 -0.86993,-0.583 -1.54795,-1.41 -1.94833,-2.378 -0.40038,-0.968 -0.50514,-2.034 -0.30103,-3.061 0.20411,-1.028 0.70793,-1.972 1.44774,-2.713 0.73981,-0.741 1.68238,-1.246 2.70853,-1.45 1.02614,-0.205 2.08974,-0.1 3.05634,0.301 0.9666,0.401 1.7928,1.08 2.3741,1.952 0.5812,0.871 0.8915,1.895 0.8915,2.943 0,1.405 -0.5573,2.753 -1.5494,3.747 -0.992,0.993 -2.3376,1.551 -3.7405,1.551 z m 101.9712,-12.4 c -1.046,0 -2.069,-0.31 -2.938,-0.893 -0.87,-0.582 -1.548,-1.409 -1.949,-2.377 -0.4,-0.9685 -0.505,-2.0339 -0.301,-3.0616 0.204,-1.0278 0.708,-1.9718 1.448,-2.7128 0.74,-0.741 1.682,-1.2456 2.708,-1.45 1.027,-0.2045 2.09,-0.0996 3.057,0.3015 0.966,0.401 1.793,1.0801 2.374,1.9514 0.581,0.8713 0.891,1.8956 0.891,2.9435 0,1.4052 -0.557,2.753 -1.549,3.746 -0.992,0.994 -2.338,1.552 -3.741,1.552 z"
       fill="#e1e1e1"
       id="path2" />
    <path
       d="m 215.319,100.627 c -1.529,-0.074 -3.054,0.213 -4.452,0.838 -1.398,0.624 -2.631,1.569 -3.597,2.758 h -33.541 c -0.461,0 -0.912,-0.143 -1.29,-0.408 -0.378,-0.266 -0.666,-0.641 -0.823,-1.075 L 159.899,70.499 c -0.124,-0.3412 -0.164,-0.7073 -0.116,-1.0672 0.047,-0.36 0.181,-0.7031 0.389,-1.0001 0.209,-0.2971 0.486,-0.5393 0.808,-0.7062 0.322,-0.1668 0.679,-0.2533 1.042,-0.2521 h 26.337 c 1.277,1.5683 3.008,2.7023 4.955,3.2464 1.947,0.544 4.014,0.4715 5.917,-0.2077 1.904,-0.6792 3.552,-1.9318 4.716,-3.5859 1.165,-1.6541 1.791,-3.6288 1.791,-5.6529 0,-2.0242 -0.626,-3.9989 -1.791,-5.653 -1.164,-1.6541 -2.812,-2.9067 -4.716,-3.5859 -1.903,-0.6792 -3.97,-0.7517 -5.917,-0.2077 -1.947,0.5441 -3.678,1.6781 -4.955,3.2465 h -44.017 c -0.362,-2e-4 -0.719,0.0871 -1.04,0.2545 -0.321,0.1673 -0.597,0.4097 -0.804,0.7066 -0.208,0.2969 -0.341,0.6396 -0.388,0.9989 -0.048,0.3594 -0.008,0.725 0.116,1.0656 l 20.728,57.0412 c 0.158,0.435 0.445,0.81 0.824,1.076 0.379,0.265 0.829,0.407 1.292,0.407 h 42.2 c 1.032,1.267 2.364,2.256 3.874,2.876 1.511,0.62 3.153,0.851 4.776,0.674 1.622,-0.177 3.175,-0.759 4.517,-1.69 1.342,-0.932 2.429,-2.185 3.164,-3.645 0.735,-1.461 1.093,-3.082 1.043,-4.716 -0.05,-1.634 -0.507,-3.23 -1.33,-4.643 -0.823,-1.412 -1.986,-2.595 -3.382,-3.443 -1.396,-0.847 -2.982,-1.332 -4.613,-1.409 z M 195.947,55.975 c 1.046,0 2.069,0.3107 2.939,0.8929 0.87,0.5822 1.548,1.4097 1.948,2.3778 0.401,0.9681 0.505,2.0334 0.301,3.0612 -0.204,1.0278 -0.708,1.9718 -1.448,2.7128 -0.739,0.741 -1.682,1.2456 -2.708,1.45 -1.026,0.2044 -2.09,0.0995 -3.056,-0.3015 -0.967,-0.401 -1.793,-1.0801 -2.374,-1.9514 -0.582,-0.8713 -0.892,-1.8957 -0.892,-2.9435 0,-1.4052 0.557,-2.7529 1.549,-3.7465 0.992,-0.9936 2.338,-1.5518 3.741,-1.5518 z m 18.909,59.746 c -1.047,0 -2.069,-0.31 -2.939,-0.893 -0.87,-0.582 -1.548,-1.409 -1.949,-2.377 -0.4,-0.968 -0.505,-2.034 -0.301,-3.062 0.204,-1.027 0.708,-1.971 1.448,-2.712 0.74,-0.741 1.682,-1.246 2.709,-1.45 1.026,-0.205 2.089,-0.1 3.056,0.301 0.967,0.401 1.793,1.08 2.374,1.952 0.581,0.871 0.892,1.895 0.892,2.943 0,1.405 -0.558,2.753 -1.55,3.747 -0.992,0.993 -2.337,1.551 -3.74,1.551 z"
       fill="#e1e1e1"
       id="path4" />
    <path
       d="m 180.653,25.5495 c -1.529,-0.0739 -3.054,0.213 -4.452,0.8376 -1.398,0.6246 -2.63,1.5695 -3.597,2.7584 H 36.4614 c -0.4609,-2e-4 -0.9107,0.1414 -1.2887,0.4055 -0.378,0.2641 -0.666,0.638 -0.825,1.0713 L 17.3592,76.8976 c -1.8909,0.7141 -3.5149,1.9965 -4.6495,3.6714 -1.1345,1.6749 -1.724,3.6604 -1.6876,5.684 0.0364,2.0237 0.6969,3.9866 1.8909,5.6195 1.194,1.6329 2.8631,2.856 4.7784,3.5014 1.9153,0.6455 3.9831,0.6817 5.9198,0.1038 1.9367,-0.5779 3.6475,-1.7416 4.8979,-3.3317 1.2503,-1.59 1.979,-3.5285 2.0861,-5.5497 0.1071,-2.0212 -0.4126,-4.026 -1.4879,-5.7397 L 43.093,42.8128 c 0.1591,-0.4336 0.4474,-0.8078 0.8259,-1.072 0.3784,-0.2641 0.8288,-0.4054 1.29,-0.4048 l 127.3901,0.2097 c 1.032,1.2668 2.364,2.2552 3.875,2.8751 1.51,0.6199 3.151,0.8518 4.774,0.6745 1.623,-0.1772 3.176,-0.758 4.517,-1.6895 1.342,-0.9315 2.429,-2.1841 3.165,-3.644 0.735,-1.4598 1.094,-3.0805 1.044,-4.7147 -0.05,-1.6343 -0.507,-3.2301 -1.329,-4.6424 -0.823,-1.4123 -1.984,-2.5963 -3.38,-3.4443 -1.396,-0.8479 -2.981,-1.3329 -4.612,-1.4109 z M 20.8168,91.372 c -1.0463,0 -2.069,-0.3108 -2.939,-0.8929 -0.8699,-0.5822 -1.5479,-1.4097 -1.9483,-2.3778 -0.4004,-0.9682 -0.5051,-2.0335 -0.301,-3.0612 0.2041,-1.0278 0.7079,-1.9719 1.4477,-2.7128 0.7398,-0.741 1.6824,-1.2456 2.7085,-1.4501 1.0262,-0.2044 2.0898,-0.0995 3.0564,0.3015 0.9666,0.4011 1.7928,1.0801 2.3741,1.9514 0.5812,0.8713 0.8915,1.8957 0.8915,2.9436 0,1.4052 -0.5574,2.7528 -1.5494,3.7464 -0.9921,0.9937 -2.3376,1.5519 -3.7405,1.5519 z M 180.19,40.6439 c -1.046,0 -2.069,-0.3107 -2.939,-0.8929 -0.87,-0.5822 -1.548,-1.4097 -1.948,-2.3778 -0.401,-0.9681 -0.506,-2.0335 -0.302,-3.0612 0.205,-1.0278 0.708,-1.9718 1.448,-2.7128 0.74,-0.741 1.683,-1.2456 2.709,-1.45 1.026,-0.2045 2.09,-0.0995 3.056,0.3015 0.967,0.401 1.793,1.0801 2.374,1.9514 0.581,0.8713 0.892,1.8956 0.892,2.9435 0,1.4052 -0.558,2.7528 -1.55,3.7465 -0.992,0.9936 -2.337,1.5518 -3.74,1.5518 z"
       fill="#d61cda"
       id="path6"
       style="fill:#f00a4b;fill-opacity:1" />
    <path
       d="m 234.44,125.642 c -1.453,-10e-4 -2.888,0.322 -4.2,0.946 -1.312,0.624 -2.469,1.533 -3.386,2.661 H 103.587 c -1.278,-1.568 -3.008,-2.702 -4.955,-3.247 -1.9467,-0.544 -4.0137,-0.471 -5.9175,0.208 -1.9039,0.679 -3.5512,1.932 -4.7161,3.586 -1.1649,1.654 -1.7903,3.629 -1.7903,5.653 0,2.024 0.6254,3.999 1.7903,5.653 1.1649,1.654 2.8122,2.907 4.7161,3.586 1.9038,0.679 3.9708,0.752 5.9175,0.208 1.947,-0.544 3.677,-1.678 4.955,-3.247 h 123.267 c 1.044,1.282 2.396,2.279 3.928,2.897 1.533,0.618 3.197,0.838 4.837,0.639 1.64,-0.199 3.203,-0.81 4.544,-1.777 1.341,-0.967 2.415,-2.259 3.124,-3.754 0.708,-1.495 1.027,-3.145 0.928,-4.797 -0.1,-1.651 -0.615,-3.251 -1.498,-4.65 -0.883,-1.398 -2.105,-2.55 -3.553,-3.349 -1.447,-0.798 -3.072,-1.217 -4.724,-1.216 z M 96.0012,140.747 c -1.0463,0 -2.069,-0.31 -2.939,-0.893 -0.8699,-0.582 -1.5479,-1.409 -1.9483,-2.377 -0.4004,-0.969 -0.5051,-2.034 -0.301,-3.062 0.2041,-1.027 0.7079,-1.971 1.4477,-2.712 0.7398,-0.741 1.6824,-1.246 2.7085,-1.45 1.0262,-0.205 2.0898,-0.1 3.0564,0.301 0.9666,0.401 1.7928,1.08 2.3745,1.951 0.581,0.872 0.891,1.896 0.891,2.944 0,1.405 -0.557,2.753 -1.5493,3.746 -0.9921,0.994 -2.3376,1.552 -3.7405,1.552 z m 138.4388,0 c -1.047,0 -2.069,-0.31 -2.939,-0.893 -0.87,-0.582 -1.548,-1.409 -1.949,-2.377 -0.4,-0.969 -0.505,-2.034 -0.301,-3.062 0.204,-1.027 0.708,-1.971 1.448,-2.712 0.74,-0.741 1.682,-1.246 2.709,-1.45 1.026,-0.205 2.089,-0.1 3.056,0.301 0.967,0.401 1.793,1.08 2.374,1.951 0.581,0.872 0.892,1.896 0.892,2.944 0,1.405 -0.558,2.753 -1.55,3.746 -0.992,0.994 -2.337,1.552 -3.74,1.552 z"
       fill="#d61cda"
       id="path8"
       style="fill:#f00a4b;fill-opacity:1" />
  </g>
  <path
     d="M0.912 14V3.696H5.744C6.55467 3.696 7.216 3.85067 7.728 4.16C8.25067 4.46933 8.64 4.89067 8.896 5.424C9.152 5.95733 9.28 6.56533 9.28 7.248C9.28 7.94133 9.13067 8.55467 8.832 9.088C8.544 9.62133 8.128 10.0373 7.584 10.336C7.05067 10.624 6.416 10.768 5.68 10.768H3.072V14H0.912ZM3.072 9.056H5.232C5.85067 9.056 6.31467 8.896 6.624 8.576C6.944 8.24533 7.104 7.80267 7.104 7.248C7.104 6.65067 6.95467 6.19733 6.656 5.888C6.35733 5.568 5.90933 5.408 5.312 5.408H3.072V9.056ZM10.4745 14V6.416H12.4745L12.5705 7.2C12.9118 6.98667 13.3332 6.79467 13.8345 6.624C14.3465 6.44267 14.8478 6.32 15.3385 6.256V7.888C15.0505 7.93067 14.7358 7.99467 14.3945 8.08C14.0532 8.16533 13.7278 8.26133 13.4185 8.368C13.1092 8.47467 12.8478 8.58667 12.6345 8.704V14H10.4745ZM20.0828 14.16C18.7708 14.16 17.7308 13.8347 16.9628 13.184C16.1948 12.5227 15.8108 11.5253 15.8108 10.192C15.8108 8.98667 16.1308 8.032 16.7708 7.328C17.4214 6.61333 18.3868 6.256 19.6668 6.256C20.8401 6.256 21.7361 6.56533 22.3548 7.184C22.9841 7.792 23.2987 8.592 23.2987 9.584V10.96H17.8108C17.9281 11.568 18.2054 11.984 18.6428 12.208C19.0908 12.432 19.7201 12.544 20.5308 12.544C20.9361 12.544 21.3468 12.5067 21.7628 12.432C22.1894 12.3573 22.5521 12.2613 22.8508 12.144V13.68C22.4988 13.84 22.0881 13.9573 21.6188 14.032C21.1494 14.1173 20.6374 14.16 20.0828 14.16ZM17.8108 9.632H21.4108V9.216C21.4108 8.77867 21.2828 8.43733 21.0268 8.192C20.7708 7.936 20.3388 7.808 19.7308 7.808C19.0161 7.808 18.5148 7.952 18.2268 8.24C17.9494 8.528 17.8108 8.992 17.8108 9.632ZM27.3965 14.16C26.8312 14.16 26.2925 14.1173 25.7805 14.032C25.2685 13.9573 24.8578 13.8613 24.5485 13.744V11.952C24.9218 12.1013 25.3432 12.2187 25.8125 12.304C26.2818 12.3787 26.7138 12.416 27.1085 12.416C27.6418 12.416 28.0152 12.384 28.2285 12.32C28.4525 12.256 28.5645 12.112 28.5645 11.888C28.5645 11.632 28.3938 11.4453 28.0525 11.328C27.7218 11.2107 27.2258 11.0453 26.5645 10.832C25.8712 10.5973 25.3378 10.3147 24.9645 9.984C24.5912 9.65333 24.4045 9.16267 24.4045 8.512C24.4045 7.78667 24.6658 7.232 25.1885 6.848C25.7218 6.45333 26.5752 6.256 27.7485 6.256C28.2178 6.256 28.6605 6.29333 29.0765 6.368C29.4925 6.432 29.8445 6.512 30.1325 6.608V8.384C29.8445 8.24533 29.5138 8.144 29.1405 8.08C28.7672 8.00533 28.4205 7.968 28.1005 7.968C27.6418 7.968 27.2738 8 26.9965 8.064C26.7298 8.128 26.5965 8.26667 26.5965 8.48C26.5965 8.71467 26.7405 8.88 27.0285 8.976C27.3272 9.072 27.7858 9.216 28.4045 9.408C29.0125 9.58933 29.4872 9.78667 29.8285 10C30.1698 10.2133 30.4098 10.4693 30.5485 10.768C30.6872 11.056 30.7565 11.4187 30.7565 11.856C30.7565 13.392 29.6365 14.16 27.3965 14.16ZM35.9734 14.16C34.6614 14.16 33.6214 13.8347 32.8534 13.184C32.0854 12.5227 31.7014 11.5253 31.7014 10.192C31.7014 8.98667 32.0214 8.032 32.6614 7.328C33.312 6.61333 34.2774 6.256 35.5574 6.256C36.7307 6.256 37.6267 6.56533 38.2454 7.184C38.8747 7.792 39.1894 8.592 39.1894 9.584V10.96H33.7014C33.8187 11.568 34.096 11.984 34.5334 12.208C34.9814 12.432 35.6107 12.544 36.4214 12.544C36.8267 12.544 37.2374 12.5067 37.6534 12.432C38.08 12.3573 38.4427 12.2613 38.7414 12.144V13.68C38.3894 13.84 37.9787 13.9573 37.5094 14.032C37.04 14.1173 36.528 14.16 35.9734 14.16ZM33.7014 9.632H37.3014V9.216C37.3014 8.77867 37.1734 8.43733 36.9174 8.192C36.6614 7.936 36.2294 7.808 35.6214 7.808C34.9067 7.808 34.4054 7.952 34.1174 8.24C33.84 8.528 33.7014 8.992 33.7014 9.632ZM40.6933 14V6.416H42.6933L42.7733 7.136C43.0826 6.90133 43.4719 6.69867 43.9413 6.528C44.4213 6.34667 44.9226 6.256 45.4453 6.256C46.4479 6.256 47.1786 6.49067 47.6373 6.96C48.0959 7.42933 48.3253 8.15467 48.3253 9.136V14H46.1653V9.248C46.1653 8.736 46.0586 8.37333 45.8453 8.16C45.6426 7.94667 45.2586 7.84 44.6933 7.84C44.3626 7.84 44.0266 7.91467 43.6853 8.064C43.3546 8.21333 43.0773 8.4 42.8533 8.624V14H40.6933ZM53.0919 14.16C52.2172 14.16 51.5665 13.9307 51.1399 13.472C50.7239 13.0133 50.5159 12.3893 50.5159 11.6V8.08H49.4439V6.416H50.5159V4.784L52.6759 4.144V6.416H54.5959L54.4679 8.08H52.6759V11.456C52.6759 11.872 52.7719 12.16 52.9639 12.32C53.1559 12.4693 53.4545 12.544 53.8599 12.544C54.1585 12.544 54.4679 12.4907 54.7879 12.384V13.872C54.5532 13.968 54.2972 14.0373 54.0199 14.08C53.7425 14.1333 53.4332 14.16 53.0919 14.16ZM59.8484 14.16C58.5364 14.16 57.4964 13.8347 56.7284 13.184C55.9604 12.5227 55.5764 11.5253 55.5764 10.192C55.5764 8.98667 55.8964 8.032 56.5364 7.328C57.187 6.61333 58.1524 6.256 59.4324 6.256C60.6057 6.256 61.5017 6.56533 62.1204 7.184C62.7497 7.792 63.0644 8.592 63.0644 9.584V10.96H57.5764C57.6937 11.568 57.971 11.984 58.4084 12.208C58.8564 12.432 59.4857 12.544 60.2964 12.544C60.7017 12.544 61.1124 12.5067 61.5284 12.432C61.955 12.3573 62.3177 12.2613 62.6164 12.144V13.68C62.2644 13.84 61.8537 13.9573 61.3844 14.032C60.915 14.1173 60.403 14.16 59.8484 14.16ZM57.5764 9.632H61.1764V9.216C61.1764 8.77867 61.0484 8.43733 60.7924 8.192C60.5364 7.936 60.1044 7.808 59.4964 7.808C58.7817 7.808 58.2804 7.952 57.9924 8.24C57.715 8.528 57.5764 8.992 57.5764 9.632ZM67.7363 14.16C67.0643 14.16 66.4616 14.0427 65.9283 13.808C65.4056 13.5627 64.9949 13.168 64.6963 12.624C64.3976 12.0693 64.2483 11.3387 64.2483 10.432C64.2483 9.52533 64.4136 8.76267 64.7443 8.144C65.0749 7.52533 65.5176 7.056 66.0723 6.736C66.6269 6.416 67.2349 6.256 67.8963 6.256C68.7283 6.256 69.4376 6.448 70.0243 6.832V3.216H72.1843V14H70.3283L70.2003 13.296C69.8696 13.584 69.5069 13.8027 69.1123 13.952C68.7283 14.0907 68.2696 14.16 67.7363 14.16ZM68.3283 12.576C69.0003 12.576 69.5656 12.3467 70.0243 11.888V8.432C69.5763 8.03733 69.0536 7.84 68.4563 7.84C67.1123 7.84 66.4403 8.704 66.4403 10.432C66.4403 11.2427 66.6056 11.8027 66.9363 12.112C67.2669 12.4213 67.7309 12.576 68.3283 12.576ZM81.9854 14.16C81.452 14.16 80.988 14.0907 80.5934 13.952C80.1987 13.8027 79.836 13.584 79.5054 13.296L79.3934 14H77.5214V3.216H79.6814V6.832C79.9907 6.64 80.3374 6.496 80.7214 6.4C81.1054 6.304 81.5054 6.256 81.9214 6.256C83.0094 6.256 83.868 6.56533 84.4974 7.184C85.1374 7.792 85.4574 8.77867 85.4574 10.144C85.4574 11.5093 85.1427 12.5227 84.5134 13.184C83.8947 13.8347 83.052 14.16 81.9854 14.16ZM81.3774 12.576C82.0707 12.576 82.556 12.3733 82.8334 11.968C83.1214 11.5627 83.2654 10.9547 83.2654 10.144C83.2654 9.30133 83.1107 8.70933 82.8014 8.368C82.5027 8.016 82.0227 7.84 81.3614 7.84C81.0307 7.84 80.716 7.888 80.4174 7.984C80.1294 8.08 79.884 8.21867 79.6814 8.4V11.888C79.8947 12.112 80.1454 12.2827 80.4334 12.4C80.732 12.5173 81.0467 12.576 81.3774 12.576ZM88.0679 16.816C87.7372 16.816 87.4439 16.7947 87.1879 16.752C86.9319 16.72 86.6812 16.656 86.4359 16.56V15.04C86.6172 15.104 86.7825 15.1467 86.9319 15.168C87.0919 15.1893 87.2519 15.2 87.4119 15.2C87.8492 15.2 88.1852 15.0987 88.4199 14.896C88.6652 14.6933 88.9105 14.352 89.1559 13.872L85.7639 6.416H88.0199L90.2439 11.568L92.4519 6.416H94.6919L91.6999 13.472C91.4225 14.1333 91.1185 14.7147 90.7879 15.216C90.4679 15.728 90.0892 16.1227 89.6519 16.4C89.2145 16.6773 88.6865 16.816 88.0679 16.816ZM95.5764 8.832V7.184H97.3364V8.832H95.5764ZM95.5764 13.632V11.984H97.3364V13.632H95.5764Z"
     fill="white"
     id="path12" />
  <defs
     id="defs17">
    <clipPath
       id="clip0_1207_1054">
      <rect
         width="244.012"
         height="119.718"
         fill="white"
         transform="translate(0.219727 25.5381)"
         id="rect14" />
    </clipPath>
  </defs>
</svg>
